<?xml version="1.0" encoding="UTF-8" standalone="no"?><!DOCTYPE svg PUBLIC "-//W3C//DTD SVG 1.1//EN" "http://www.w3.org/Graphics/SVG/1.1/DTD/svg11.dtd"><svg width="100%" height="100%" viewBox="0 0 29 29" version="1.1" xmlns="http://www.w3.org/2000/svg" xmlns:xlink="http://www.w3.org/1999/xlink" xml:space="preserve" xmlns:serif="http://www.serif.com/" style="fill-rule:evenodd;clip-rule:evenodd;stroke-miterlimit:1.41421;"><g><path d="M20.124,26.532c0.137,0 0.205,-0.068 0.205,-0.205c0,-0.124 -0.068,-0.186 -0.205,-0.186l-9.818,0l-3.875,-7.75l7.862,-15.705l5.831,0c0.137,0 0.205,-0.068 0.205,-0.205c0,-0.124 -0.068,-0.186 -0.205,-0.186l-5.961,0c-0.087,0 -0.149,0.037 -0.187,0.112l-7.768,15.537l-1.752,-3.54l5.906,-11.83c0.062,-0.112 0.031,-0.199 -0.093,-0.261c-0.112,-0.062 -0.199,-0.031 -0.261,0.094l-5.961,11.923c-0.025,0.049 -0.025,0.105 0,0.167l5.961,11.923c0.037,0.075 0.099,0.112 0.186,0.112l9.93,0Z" style="fill:#bac5e5;fill-rule:nonzero;stroke:#bfcae7;stroke-width:0.1px;"/><path d="M24.772,7.376l0,18.943c0,0.124 -0.068,0.186 -0.205,0.186c-0.136,0 -0.205,-0.062 -0.205,-0.186l0,-18.943l0.41,0Zm-3.987,0l0,18.943c0,0.124 -0.062,0.186 -0.186,0.186c-0.137,0 -0.205,-0.062 -0.205,-0.186l0,-18.943l0.391,0Zm-0.391,-1.582l0,-3.321c0,-0.137 0.068,-0.205 0.205,-0.205l3.968,0c0.137,0 0.205,0.068 0.205,0.205l0,3.321l-0.41,0l0,-3.135l-3.577,0l0,3.135l-0.391,0Z" style="fill:#bac5e5;fill-rule:nonzero;stroke:#bfcae7;stroke-width:0.1px;"/></g></svg>